<svg width="34" height="34" viewBox="0 0 34 34" fill="none" xmlns="http://www.w3.org/2000/svg">
<path d="M18.2396 7.03906C18.9125 6.57422 19.3611 5.73086 19.3611 4.78125C19.3611 3.31367 18.3045 2.125 17 2.125C15.6955 2.125 14.6389 3.31367 14.6389 4.78125C14.6389 5.7375 15.0875 6.57422 15.7604 7.03906L12.3781 14.6492C11.841 15.8578 10.4479 16.2031 9.50937 15.3598L4.25 10.625C4.54514 10.1801 4.72222 9.62891 4.72222 9.03125C4.72222 7.56367 3.66562 6.375 2.36111 6.375C1.0566 6.375 0 7.56367 0 9.03125C0 10.4988 1.0566 11.6875 2.36111 11.6875C2.37292 11.6875 2.39062 11.6875 2.40243 11.6875L5.1 28.382C5.42465 30.4008 6.98889 31.875 8.81875 31.875H25.1812C27.0052 31.875 28.5694 30.4074 28.9 28.382L31.5976 11.6875C31.6094 11.6875 31.6271 11.6875 31.6389 11.6875C32.9434 11.6875 34 10.4988 34 9.03125C34 7.56367 32.9434 6.375 31.6389 6.375C30.3344 6.375 29.2778 7.56367 29.2778 9.03125C29.2778 9.62891 29.4549 10.1801 29.75 10.625L24.4906 15.3598C23.5521 16.2031 22.159 15.8578 21.6219 14.6492L18.2396 7.03906Z" fill="white"/>
</svg>
