<svg width="40" height="42" viewBox="0 0 40 42" fill="none" xmlns="http://www.w3.org/2000/svg">
<g clip-path="url(#clip0_69_116)">
<path d="M13.6916 32.1099C13.6916 32.267 13.5116 32.3927 13.2846 32.3927C13.0263 32.4163 12.8462 32.2906 12.8462 32.1099C12.8462 31.9527 13.0263 31.827 13.2533 31.827C13.4881 31.8034 13.6916 31.9292 13.6916 32.1099ZM11.2573 31.7563C11.2025 31.9134 11.359 32.0942 11.5939 32.1413C11.7974 32.2199 12.0322 32.1413 12.0792 31.9842C12.1261 31.827 11.9774 31.6463 11.7426 31.5756C11.5391 31.5206 11.3121 31.5992 11.2573 31.7563ZM14.717 31.6227C14.49 31.6777 14.3334 31.827 14.3569 32.0077C14.3804 32.1649 14.5839 32.267 14.8187 32.212C15.0457 32.157 15.2023 32.0077 15.1788 31.8506C15.1553 31.7013 14.944 31.5992 14.717 31.6227ZM19.8673 1.51416C9.01085 1.51416 0.706055 9.78773 0.706055 20.6856C0.706055 29.3992 6.16953 36.8556 13.9734 39.4799C14.9753 39.6606 15.3275 39.0399 15.3275 38.5292C15.3275 38.042 15.304 35.3549 15.304 33.7049C15.304 33.7049 9.82489 34.8834 8.67427 31.3634C8.67427 31.3634 7.78196 29.077 6.49827 28.4877C6.49827 28.4877 4.70582 27.2542 6.62351 27.2777C6.62351 27.2777 8.57252 27.4349 9.64486 29.3049C11.359 32.3377 14.2317 31.4656 15.351 30.947C15.531 29.6899 16.0398 28.8177 16.6034 28.2992C12.2279 27.812 7.81327 27.1756 7.81327 19.617C7.81327 17.4563 8.40814 16.372 9.66051 14.9892C9.457 14.4784 8.79168 12.3727 9.86402 9.65416C11.4999 9.14345 15.2649 11.7756 15.2649 11.7756C16.8303 11.3356 18.5132 11.1077 20.1804 11.1077C21.8477 11.1077 23.5305 11.3356 25.096 11.7756C25.096 11.7756 28.8609 9.13559 30.4969 9.65416C31.5692 12.3806 30.9039 14.4784 30.7004 14.9892C31.9527 16.3799 32.7198 17.4642 32.7198 19.617C32.7198 27.1992 28.1095 27.8042 23.734 28.2992C24.4542 28.9199 25.0647 30.0984 25.0647 31.9449C25.0647 34.5927 25.0412 37.8692 25.0412 38.5134C25.0412 39.0242 25.4013 39.6449 26.3953 39.4642C34.2227 36.8556 39.5296 29.3992 39.5296 20.6856C39.5296 9.78773 30.7238 1.51416 19.8673 1.51416ZM8.31421 28.6134C8.21246 28.692 8.23594 28.8727 8.36901 29.022C8.49424 29.1477 8.67427 29.2027 8.77603 29.1006C8.87778 29.022 8.8543 28.8413 8.72124 28.692C8.596 28.5663 8.41597 28.5113 8.31421 28.6134ZM7.46886 27.977C7.41407 28.0792 7.49234 28.2049 7.64889 28.2834C7.77413 28.362 7.93068 28.3384 7.98547 28.2284C8.04026 28.1263 7.96198 28.0006 7.80544 27.922C7.64889 27.8749 7.52365 27.8984 7.46886 27.977ZM10.0049 30.7742C9.87968 30.8763 9.92664 31.112 10.1067 31.2613C10.2867 31.442 10.5137 31.4656 10.6154 31.3399C10.7172 31.2377 10.6702 31.002 10.5137 30.8527C10.3415 30.672 10.1067 30.6484 10.0049 30.7742ZM9.1126 29.6192C8.98736 29.6977 8.98736 29.902 9.1126 30.0827C9.23784 30.2634 9.44918 30.342 9.55093 30.2634C9.67617 30.1613 9.67617 29.957 9.55093 29.7763C9.44135 29.5956 9.23784 29.517 9.1126 29.6192Z" fill="#1C7ED6"/>
</g>
<defs>
<clipPath id="clip0_69_116">
<rect width="38.8235" height="40.2286" fill="white" transform="translate(0.706055 0.885742)"/>
</clipPath>
</defs>
</svg>
