<svg width="104" height="123" viewBox="0 0 104 123" fill="none" xmlns="http://www.w3.org/2000/svg">
<path d="M55.0447 51.9034L1.47806 112.369C-0.492687 114.594 -0.492687 118.193 1.47806 120.395C3.44881 122.596 6.63555 122.62 8.58533 120.395L24.2675 102.686C25.8189 103.775 27.4752 104.627 29.2572 105.172C38.6497 108.06 53.2626 108.463 67.5191 97.7852C70.0769 95.8675 68.7351 91.7718 65.6741 91.7718H62.2987C61.2295 91.7718 60.3699 90.8011 60.3699 89.5937C60.3699 88.623 60.936 87.7944 61.7326 87.5103L82.2158 80.5736C82.9287 80.3368 83.5576 79.8397 83.9769 79.1294C84.8994 77.6142 85.78 76.0754 86.6186 74.4892C87.9184 72.0506 86.3041 69.0439 83.7882 69.0439H75.6956C74.6264 69.0439 73.7668 68.0733 73.7668 66.8659C73.7668 65.8952 74.3328 65.0666 75.1295 64.7825L92.0905 59.0295C93.055 58.698 93.8516 57.8931 94.229 56.8277C100.33 39.4504 103.118 21.2444 103.978 9.57273C104.146 7.22892 103.349 4.93246 101.881 3.27522C100.414 1.61798 98.3802 0.71834 96.3046 0.907739C78.7356 2.51763 44.562 10.4487 25.4625 32.0165C8.6692 50.98 8.5434 72.4294 11.6044 85.2375C12.0446 87.1078 14.1202 87.5103 15.3362 86.1372L49.8243 47.2157C51.1241 45.7479 53.2626 45.7479 54.5625 47.2157C55.6946 48.4942 55.8414 50.4355 55.0237 51.9034H55.0447Z" fill="#1864AB"/>
</svg>
