<svg width="104" height="113" viewBox="0 0 104 113" fill="none" xmlns="http://www.w3.org/2000/svg">
<g clip-path="url(#clip0_118_20)">
<path d="M50.1661 90.0689C48.1929 92.3201 44.6643 92.3201 42.4821 90.0689L27.625 75.9439C25.4661 74.068 25.4661 70.7133 27.625 68.6387C29.8071 66.5861 33.3357 66.5861 35.3089 68.6387L46.4286 79.0338L68.4821 58.0449C70.6643 55.9924 74.1929 55.9924 76.1661 58.0449C78.5339 60.1195 78.5339 63.4742 76.1661 65.3502L50.1661 90.0689ZM29.7143 0C32.8018 0 35.2857 2.37256 35.2857 5.29688V14.125H68.7143V5.29688C68.7143 2.37256 71.1982 0 74.2857 0C77.3732 0 79.8571 2.37256 79.8571 5.29688V14.125H89.1429C97.3375 14.125 104 20.4481 104 28.25V98.875C104 106.666 97.3375 113 89.1429 113H14.8571C6.65089 113 0 106.666 0 98.875V28.25C0 20.4481 6.65089 14.125 14.8571 14.125H24.1429V5.29688C24.1429 2.37256 26.6268 0 29.7143 0ZM92.8571 42.375H11.1429V98.875C11.1429 100.817 12.805 102.406 14.8571 102.406H89.1429C91.1857 102.406 92.8571 100.817 92.8571 98.875V42.375Z" fill="#1864AB"/>
</g>
<defs>
<clipPath id="clip0_118_20">
<rect width="104" height="113" fill="white"/>
</clipPath>
</defs>
</svg>
