<svg width="109" height="105" viewBox="0 0 109 105" fill="none" xmlns="http://www.w3.org/2000/svg">
<path d="M59.95 26.4652C59.95 40.8282 50.1911 52.4689 38.15 52.4689C26.1089 52.4689 16.35 40.8282 16.35 26.4652C16.35 12.1022 26.1089 0.461426 38.15 0.461426C50.1911 0.461426 59.95 12.1022 59.95 26.4652ZM0 98.4427C0 78.432 13.5909 62.2203 30.3667 62.2203H45.9333C62.7091 62.2203 76.3 78.432 76.3 98.4427C76.3 101.774 74.0348 104.476 71.2417 104.476H5.05828C2.26516 104.476 0 101.774 0 98.4427ZM103.771 104.476H80.2853C81.205 102.567 81.75 100.352 81.75 97.9754V96.3502C81.75 84.0188 77.1345 72.9469 69.8622 65.5114C70.2709 65.4911 70.6627 65.4708 71.0714 65.4708H81.5286C96.7034 65.4708 109 80.1385 109 98.2395C109 101.693 106.65 104.476 103.771 104.476ZM73.575 52.4689C68.2953 52.4689 63.5266 49.9092 60.0692 45.7851C63.4244 40.3812 65.4 33.6975 65.4 26.4652C65.4 21.0206 64.2759 15.8808 62.2833 11.3708C65.4511 8.60791 69.3512 6.96236 73.575 6.96236C84.1173 6.96236 92.65 17.1404 92.65 29.7156C92.65 42.2909 84.1173 52.4689 73.575 52.4689Z" fill="#1864AB"/>
</svg>
