<svg width="40" height="40" viewBox="0 0 40 40" fill="none" xmlns="http://www.w3.org/2000/svg">
<path d="M21.171 16.8423L0.568485 36.8026C-0.189495 37.5372 -0.189495 38.7251 0.568485 39.4519C1.32647 40.1788 2.55213 40.1866 3.30205 39.4519L9.33364 33.6061C9.93034 33.9656 10.5674 34.247 11.2528 34.4267C14.8653 35.3802 20.4856 35.513 25.9689 31.9884C26.9526 31.3553 26.4366 30.0033 25.2593 30.0033H23.961C23.5498 30.0033 23.2192 29.6828 23.2192 29.2843C23.2192 28.9638 23.4369 28.6903 23.7433 28.5965L31.6215 26.3066C31.8956 26.2285 32.1375 26.0644 32.2988 25.8299C32.6536 25.3297 32.9923 24.8217 33.3148 24.2981C33.8148 23.4931 33.1939 22.5006 32.2262 22.5006H29.1137C28.7024 22.5006 28.3718 22.1802 28.3718 21.7816C28.3718 21.4612 28.5896 21.1876 28.896 21.0939L35.4194 19.1947C35.7904 19.0853 36.0968 18.8196 36.2419 18.4679C38.5884 12.7315 39.6609 6.72155 39.9915 2.86862C40.056 2.09491 39.7496 1.33683 39.1851 0.789756C38.6207 0.242687 37.8385 -0.0542938 37.0402 0.00822848C30.2829 0.539668 17.1392 3.15779 9.79326 10.2775C3.33431 16.5375 3.28592 23.6182 4.46321 27.8463C4.63255 28.4637 5.43085 28.5965 5.89854 28.1432L19.1632 15.2949C19.6631 14.8104 20.4856 14.8104 20.9856 15.2949C21.421 15.7169 21.4774 16.3578 21.163 16.8423H21.171Z" fill="#1864AB"/>
</svg>
