<svg width="36" height="40" viewBox="0 0 36 40" fill="none" xmlns="http://www.w3.org/2000/svg">
<path d="M17.3652 31.8828C16.6821 32.6797 15.4607 32.6797 14.7054 31.8828L9.5625 26.8828C8.81518 26.2188 8.81518 25.0312 9.5625 24.2969C10.3179 23.5703 11.5393 23.5703 12.2223 24.2969L16.0714 27.9766L23.7054 20.5469C24.4607 19.8203 25.6821 19.8203 26.3652 20.5469C27.1848 21.2812 27.1848 22.4688 26.3652 23.1328L17.3652 31.8828ZM10.2857 0C11.3545 0 12.2143 0.839844 12.2143 1.875V5H23.7857V1.875C23.7857 0.839844 24.6455 0 25.7143 0C26.783 0 27.6429 0.839844 27.6429 1.875V5H30.8571C33.6937 5 36 7.23828 36 10V35C36 37.7578 33.6937 40 30.8571 40H5.14286C2.30223 40 0 37.7578 0 35V10C0 7.23828 2.30223 5 5.14286 5H8.35714V1.875C8.35714 0.839844 9.21696 0 10.2857 0ZM32.1429 15H3.85714V35C3.85714 35.6875 4.4325 36.25 5.14286 36.25H30.8571C31.5643 36.25 32.1429 35.6875 32.1429 35V15Z" fill="#1864AB"/>
</svg>
