<svg width="40" height="35" viewBox="0 0 40 35" fill="none" xmlns="http://www.w3.org/2000/svg">
<path d="M22 8.75C22 13.583 18.4188 17.5 14 17.5C9.58125 17.5 6 13.583 6 8.75C6 3.91699 9.58125 0 14 0C18.4188 0 22 3.91699 22 8.75ZM0 32.9697C0 26.2363 4.9875 20.7812 11.1438 20.7812H16.8563C23.0125 20.7812 28 26.2363 28 32.9697C28 34.0908 27.1687 35 26.1437 35H1.85625C0.83125 35 0 34.0908 0 32.9697ZM38.0812 35H29.4625C29.8 34.3574 30 33.6123 30 32.8125V32.2656C30 28.1162 28.3063 24.3906 25.6375 21.8887C25.7875 21.8818 25.9312 21.875 26.0812 21.875H29.9188C35.4875 21.875 40 26.8105 40 32.9014C40 34.0635 39.1375 35 38.0812 35ZM27 17.5C25.0625 17.5 23.3125 16.6387 22.0438 15.251C23.275 13.4326 24 11.1836 24 8.75C24 6.91797 23.5875 5.18848 22.8563 3.6709C24.0188 2.74121 25.45 2.1875 27 2.1875C30.8687 2.1875 34 5.6123 34 9.84375C34 14.0752 30.8687 17.5 27 17.5Z" fill="#1864AB"/>
</svg>
