<svg width="27" height="27" viewBox="0 0 27 27" fill="none" xmlns="http://www.w3.org/2000/svg">
<path d="M1 6H26M11 12.25V18.5M16 12.25V18.5M3.5 6H23.5L21.525 23.775C21.4573 24.3867 21.1663 24.952 20.7078 25.3625C20.2493 25.7731 19.6555 26 19.04 26H7.96C7.34454 26 6.7507 25.7731 6.29218 25.3625C5.83367 24.952 5.5427 24.3867 5.475 23.775L3.5 6ZM7.68125 2.43375C7.88344 2.00496 8.20338 1.6425 8.60376 1.38864C9.00413 1.13478 9.46843 0.999994 9.9425 1H17.0575C17.5318 0.999757 17.9963 1.13443 18.397 1.3883C18.7976 1.64218 19.1177 2.00477 19.32 2.43375L21 6H6L7.68125 2.43375V2.43375Z" stroke="#7B7B7B" stroke-width="2" stroke-linecap="round" stroke-linejoin="round"/>
</svg>
