<svg width="35" height="35" viewBox="0 0 35 35" fill="none" xmlns="http://www.w3.org/2000/svg">
<path d="M33.5023 27.7295L27.6428 21.8699L23.1357 20.0078C24.6364 17.8737 25.4404 15.3277 25.4375 12.7188C25.4375 5.70559 19.7319 0 12.7188 0C5.70559 0 0 5.70559 0 12.7188C0 19.7319 5.70559 25.4375 12.7188 25.4375C15.3504 25.4405 17.9175 24.6226 20.0623 23.0978L21.9195 27.5927L27.7789 33.4526C28.1547 33.8284 28.6008 34.1265 29.0918 34.3299C29.5828 34.5333 30.109 34.638 30.6405 34.638C31.172 34.638 31.6982 34.5333 32.1892 34.33C32.6802 34.1266 33.1264 33.8285 33.5022 33.4527C33.878 33.077 34.1761 32.6308 34.3795 32.1398C34.5829 31.6488 34.6876 31.1226 34.6876 30.5911C34.6876 30.0597 34.5829 29.5334 34.3796 29.0424C34.1762 28.5514 33.8781 28.1053 33.5023 27.7295ZM2.3125 12.7188C2.3125 6.98086 6.98086 2.3125 12.7188 2.3125C18.4566 2.3125 23.125 6.98086 23.125 12.7188C23.125 18.4566 18.4566 23.125 12.7188 23.125C6.98086 23.125 2.3125 18.4566 2.3125 12.7188ZM31.867 31.8174C31.5415 32.1422 31.1005 32.3246 30.6406 32.3246C30.1808 32.3246 29.7397 32.1422 29.4142 31.8174L23.8807 26.2839L22.154 22.1044L26.3336 23.8311L31.8672 29.3646C32.1919 29.6902 32.3743 30.1312 32.3743 30.591C32.3742 31.0509 32.1918 31.4919 31.867 31.8174Z" fill="#808080"/>
</svg>
