<?xml version="1.0" standalone="no"?>
<!DOCTYPE svg PUBLIC "-//W3C//DTD SVG 20010904//EN"
 "http://www.w3.org/TR/2001/REC-SVG-20010904/DTD/svg10.dtd">
<svg version="1.0" xmlns="http://www.w3.org/2000/svg"
 width="576.000000pt" height="512.000000pt" viewBox="0 0 576.000000 512.000000"
 preserveAspectRatio="xMidYMid meet">

<g transform="translate(0.000000,512.000000) scale(0.100000,-0.100000)"
fill="#F03E3E" stroke="none">
<path d="M1455 5109 c-198 -21 -388 -78 -573 -174 -148 -77 -251 -154 -388
-290 -355 -354 -527 -841 -486 -1378 20 -254 72 -455 173 -667 61 -128 174
-299 266 -401 37 -42 542 -536 1120 -1097 1155 -1120 1093 -1066 1245 -1092
86 -15 177 -1 266 41 56 27 178 142 1110 1045 576 559 1066 1037 1090 1062
177 192 308 414 386 654 123 375 125 821 5 1181 -142 424 -435 764 -824 957
-234 116 -435 163 -695 163 -180 0 -299 -18 -462 -70 -275 -86 -474 -213 -695
-441 l-112 -115 -133 134 c-156 156 -274 245 -443 328 -271 134 -565 190 -850
160z m395 -658 c98 -28 239 -99 320 -160 36 -27 208 -198 383 -380 175 -182
322 -331 327 -331 5 0 152 149 327 331 175 182 347 353 383 380 88 67 198 122
305 155 83 26 103 28 260 28 160 0 175 -1 255 -28 47 -16 112 -42 145 -58 289
-145 494 -423 550 -747 19 -109 19 -353 0 -463 -39 -224 -146 -434 -307 -601
-108 -113 -1910 -1857 -1918 -1857 -15 0 -1931 1866 -1993 1942 -86 105 -176
284 -213 423 -22 84 -27 128 -31 278 -4 117 -1 205 7 255 68 425 377 761 780
847 97 21 323 13 420 -14z"/>
</g>
</svg>
