<?xml version="1.0" standalone="no"?>
<!DOCTYPE svg PUBLIC "-//W3C//DTD SVG 20010904//EN"
 "http://www.w3.org/TR/2001/REC-SVG-20010904/DTD/svg10.dtd">
<svg version="1.0" xmlns="http://www.w3.org/2000/svg"
 width="576.000000pt" height="512.000000pt" viewBox="0 0 576.000000 512.000000"
 preserveAspectRatio="xMidYMid meet">

<g transform="translate(0.000000,512.000000) scale(0.100000,-0.100000)"
fill="#F03E3E" stroke="none">
<path d="M1455 5109 c-191 -18 -357 -68 -550 -164 -437 -216 -762 -646 -865
-1143 -66 -317 -44 -690 56 -992 76 -229 211 -459 372 -634 139 -152 2109
-2057 2169 -2099 143 -97 345 -96 489 2 47 33 1927 1847 2123 2049 369 382
546 888 503 1438 -32 409 -190 771 -458 1053 -485 510 -1213 640 -1839 330
-167 -83 -288 -172 -443 -326 l-132 -133 -133 133 c-155 155 -277 245 -442
326 -278 137 -555 190 -850 160z"/>
</g>
</svg>
